<mxfile host="Electron" modified="2023-06-27T12:29:16.675Z" agent="Mozilla/5.0 (Windows NT 10.0; Win64; x64) AppleWebKit/537.36 (KHTML, like Gecko) draw.io/21.5.0 Chrome/112.0.5615.204 Electron/24.5.1 Safari/537.36" etag="XgR0RevXJwpQ-x1VCrlP" version="21.5.0" type="device">
  <diagram name="Page-1" id="CNKpGbWbLx_FZc7RV2mR">
    <mxGraphModel dx="1098" dy="798" grid="1" gridSize="10" guides="1" tooltips="1" connect="1" arrows="1" fold="1" page="1" pageScale="1" pageWidth="827" pageHeight="1169" math="0" shadow="0">
      <root>
        <mxCell id="0" />
        <mxCell id="1" parent="0" />
        <mxCell id="F_ibtysnfL8IMj81jE4D-1" value="" style="ellipse;html=1;shape=startState;fillColor=#000000;strokeColor=#ff0000;" vertex="1" parent="1">
          <mxGeometry x="399" width="30" height="30" as="geometry" />
        </mxCell>
        <mxCell id="F_ibtysnfL8IMj81jE4D-2" value="" style="edgeStyle=orthogonalEdgeStyle;html=1;verticalAlign=bottom;endArrow=open;endSize=8;strokeColor=#ff0000;rounded=0;" edge="1" source="F_ibtysnfL8IMj81jE4D-1" parent="1">
          <mxGeometry relative="1" as="geometry">
            <mxPoint x="414" y="90" as="targetPoint" />
          </mxGeometry>
        </mxCell>
        <mxCell id="F_ibtysnfL8IMj81jE4D-5" value="" style="edgeStyle=orthogonalEdgeStyle;rounded=0;orthogonalLoop=1;jettySize=auto;html=1;" edge="1" parent="1" source="F_ibtysnfL8IMj81jE4D-3" target="F_ibtysnfL8IMj81jE4D-4">
          <mxGeometry relative="1" as="geometry" />
        </mxCell>
        <mxCell id="F_ibtysnfL8IMj81jE4D-3" value="Saisir la somme&amp;nbsp;" style="html=1;whiteSpace=wrap;" vertex="1" parent="1">
          <mxGeometry x="350" y="80" width="130" height="60" as="geometry" />
        </mxCell>
        <mxCell id="F_ibtysnfL8IMj81jE4D-7" value="" style="edgeStyle=orthogonalEdgeStyle;rounded=0;orthogonalLoop=1;jettySize=auto;html=1;" edge="1" parent="1" source="F_ibtysnfL8IMj81jE4D-4" target="F_ibtysnfL8IMj81jE4D-6">
          <mxGeometry relative="1" as="geometry" />
        </mxCell>
        <mxCell id="F_ibtysnfL8IMj81jE4D-4" value="Saisir l&#39;interet&amp;nbsp;" style="whiteSpace=wrap;html=1;" vertex="1" parent="1">
          <mxGeometry x="355" y="215" width="120" height="60" as="geometry" />
        </mxCell>
        <mxCell id="F_ibtysnfL8IMj81jE4D-9" value="" style="edgeStyle=orthogonalEdgeStyle;rounded=0;orthogonalLoop=1;jettySize=auto;html=1;" edge="1" parent="1" source="F_ibtysnfL8IMj81jE4D-6" target="F_ibtysnfL8IMj81jE4D-8">
          <mxGeometry relative="1" as="geometry" />
        </mxCell>
        <mxCell id="F_ibtysnfL8IMj81jE4D-6" value="Saisir le nombre d&#39;annees" style="whiteSpace=wrap;html=1;" vertex="1" parent="1">
          <mxGeometry x="355" y="355" width="120" height="60" as="geometry" />
        </mxCell>
        <mxCell id="F_ibtysnfL8IMj81jE4D-11" value="" style="edgeStyle=orthogonalEdgeStyle;rounded=0;orthogonalLoop=1;jettySize=auto;html=1;" edge="1" parent="1" source="F_ibtysnfL8IMj81jE4D-8" target="F_ibtysnfL8IMj81jE4D-10">
          <mxGeometry relative="1" as="geometry" />
        </mxCell>
        <mxCell id="F_ibtysnfL8IMj81jE4D-8" value="Calculler l&#39;interet simple&amp;nbsp;&lt;br&gt;Somme (1+annees*Interet)" style="whiteSpace=wrap;html=1;" vertex="1" parent="1">
          <mxGeometry x="355" y="495" width="120" height="60" as="geometry" />
        </mxCell>
        <mxCell id="F_ibtysnfL8IMj81jE4D-13" value="" style="edgeStyle=orthogonalEdgeStyle;rounded=0;orthogonalLoop=1;jettySize=auto;html=1;" edge="1" parent="1" source="F_ibtysnfL8IMj81jE4D-10" target="F_ibtysnfL8IMj81jE4D-12">
          <mxGeometry relative="1" as="geometry" />
        </mxCell>
        <mxCell id="F_ibtysnfL8IMj81jE4D-10" value="Calculer l&#39;interet composer&lt;br&gt;Somme (1Â³Interet)" style="whiteSpace=wrap;html=1;" vertex="1" parent="1">
          <mxGeometry x="355" y="635" width="120" height="60" as="geometry" />
        </mxCell>
        <mxCell id="F_ibtysnfL8IMj81jE4D-12" value="Afficher Interet simple et Interet composer" style="whiteSpace=wrap;html=1;" vertex="1" parent="1">
          <mxGeometry x="355" y="775" width="120" height="60" as="geometry" />
        </mxCell>
        <mxCell id="F_ibtysnfL8IMj81jE4D-18" value="" style="edgeStyle=orthogonalEdgeStyle;rounded=0;orthogonalLoop=1;jettySize=auto;html=1;" edge="1" parent="1" source="F_ibtysnfL8IMj81jE4D-12" target="F_ibtysnfL8IMj81jE4D-16">
          <mxGeometry relative="1" as="geometry">
            <mxPoint x="415" y="835" as="sourcePoint" />
            <mxPoint x="415" y="915" as="targetPoint" />
          </mxGeometry>
        </mxCell>
        <mxCell id="F_ibtysnfL8IMj81jE4D-16" value="" style="ellipse;html=1;shape=endState;fillColor=#000000;strokeColor=#ff0000;" vertex="1" parent="1">
          <mxGeometry x="400" y="900" width="30" height="30" as="geometry" />
        </mxCell>
      </root>
    </mxGraphModel>
  </diagram>
</mxfile>
